<svg width="106" height="50" viewBox="0 0 106 50" fill="none" xmlns="http://www.w3.org/2000/svg">
<path d="M11.91 39.63C11.91 39.63 10.44 40.43 9.52001 37.8C8.60001 35.17 6.52001 27.44 7.52001 25.54C8.52001 23.64 12.66 21.54 13.09 22.97C13.52 24.4 15.67 29.52 18.18 27.56C20.69 25.6 20.87 21.38 19.18 19.56C17.8584 18.3178 16.2289 17.4513 14.46 17.05C13.97 16.92 15.13 14.11 15.99 14.29C16.85 14.47 25.37 19.01 25.24 22.62C25.11 26.23 20.71 29.36 19.3 30.34C17.89 31.32 13.97 29.34 12.68 27.89C11.39 26.44 11.52 28.38 11.4 29.3C11.28 30.22 10.5 35.77 11.91 39.63Z" fill="#FFCB05" stroke="#F2DBA2" stroke-miterlimit="10"/>
<path d="M7.4099 16.78C6.6599 16.78 6.5499 16.58 6.5199 15.78C6.5041 15.6597 6.51279 15.5374 6.54544 15.4206C6.57809 15.3037 6.63403 15.1947 6.7099 15.1C6.83011 14.9902 6.98712 14.9295 7.1499 14.93C7.35304 14.9427 7.55677 14.9427 7.7599 14.93C8.22615 14.9493 8.69083 14.8642 9.11993 14.6808C9.54903 14.4974 9.93169 14.2204 10.2399 13.87C10.9809 12.9052 11.3115 11.687 11.1599 10.48C10.9799 9.18997 8.8899 7.75997 6.3699 7.75997C6.03523 7.75627 5.7008 7.77968 5.3699 7.82997C4.50193 7.97354 3.64853 8.19441 2.8199 8.48997C2.29539 8.6908 1.7478 8.82517 1.1899 8.88997C0.909902 8.88997 0.659902 8.82997 0.649902 8.15997C0.649902 6.76997 2.8299 5.89997 7.2199 5.56997H7.9299C8.83459 5.53355 9.73724 5.68142 10.583 6.0046C11.4288 6.32778 12.2 6.81953 12.8499 7.44997C12.9388 7.57151 13.0525 7.67272 13.1836 7.74687C13.3146 7.82101 13.46 7.86638 13.6099 7.87997C14.2499 7.87997 14.4799 6.99997 14.4799 6.40997C14.4799 6.00997 14.5699 2.49997 17.6799 1.77997C17.8334 1.74033 17.9913 1.72018 18.1499 1.71997C20.7599 1.71997 22.4399 7.17997 22.4799 9.57997C22.5299 12.31 22.0999 12.83 21.2499 12.87C21.0499 12.87 20.9799 12.81 20.9399 12.76C20.6799 12.47 20.7999 11.54 20.9399 10.56C20.9399 10.21 21.0299 9.83997 21.0699 9.45997C21.111 8.98148 21.0503 8.49972 20.8917 8.0464C20.7331 7.59309 20.4803 7.17851 20.1499 6.82997C19.8612 6.49273 19.5063 6.21841 19.1073 6.02403C18.7082 5.82965 18.2734 5.71934 17.8299 5.69997C17.5608 5.69948 17.2946 5.75528 17.0483 5.86377C16.802 5.97227 16.5812 6.13107 16.3999 6.32997C15.8048 7.01699 15.4874 7.90132 15.5099 8.80997C15.5099 9.11997 15.5699 9.37997 15.6099 9.64997C15.7662 10.5399 15.7356 11.4526 15.5199 12.33C15.1199 14.33 11.5199 16.12 9.1499 16.55C8.57644 16.6698 7.99482 16.7467 7.4099 16.78Z" fill="#FFCB05"/>
<path d="M18.1899 1.48999V1.99999C20.4699 1.99999 22.1899 6.99999 22.2699 9.61999C22.3199 12.62 21.7699 12.62 21.2699 12.62H21.1699C20.9799 12.41 21.1199 11.37 21.2199 10.62C21.2199 10.27 21.3099 9.88999 21.3499 9.51999C21.3914 9.00449 21.3239 8.48603 21.1516 7.99841C20.9792 7.51078 20.7061 7.06495 20.3499 6.68999C20.0363 6.32764 19.6518 6.03335 19.2201 5.82525C18.7885 5.61715 18.3187 5.49965 17.8399 5.47999C17.5378 5.4793 17.2388 5.54113 16.9617 5.6616C16.6846 5.78207 16.4355 5.95857 16.2299 6.17999C15.5707 6.91136 15.2133 7.86551 15.2299 8.84999C15.2299 9.17999 15.2899 9.44999 15.3299 9.71999C15.4861 10.5798 15.4554 11.4631 15.2399 12.31C14.8999 14.01 11.6499 15.87 9.06991 16.31C8.50702 16.4291 7.9349 16.4993 7.35992 16.52C6.80992 16.52 6.74992 16.52 6.71992 15.77C6.694 15.5941 6.73699 15.415 6.83992 15.27C6.91891 15.2064 7.01866 15.1743 7.11992 15.18C7.30964 15.1945 7.50019 15.1945 7.68992 15.18C8.19116 15.1961 8.68985 15.1024 9.15107 14.9055C9.61229 14.7085 10.0249 14.4131 10.3599 14.04C11.1566 13.0197 11.5162 11.7251 11.3599 10.44C11.1599 9.04999 9.03992 7.50999 6.35992 7.50999C6.02531 7.50843 5.69104 7.53183 5.35992 7.57999C4.47956 7.7314 3.61326 7.9555 2.76992 8.24999C2.27197 8.44548 1.75108 8.57654 1.21992 8.63999C1.03992 8.63999 0.939916 8.63999 0.929916 8.15999C0.929916 7.30999 1.98992 6.21999 7.26992 5.81999H7.95991C8.82832 5.78373 9.69508 5.92362 10.508 6.23125C11.3209 6.53888 12.0631 7.00788 12.6899 7.60999C12.8016 7.75986 12.9442 7.88389 13.1082 7.97363C13.2721 8.06336 13.4535 8.1167 13.6399 8.12999C14.3699 8.12999 14.7599 7.25999 14.7599 6.40999C14.7599 6.02999 14.8399 2.69999 17.7599 2.01999C17.8962 2.00536 18.0336 2.00536 18.1699 2.01999V1.51999M18.1699 1.51999C17.9941 1.51864 17.8191 1.5422 17.6499 1.58999C14.4799 2.31999 14.2499 5.76999 14.2499 6.45999C14.2499 6.95999 14.0499 7.67999 13.6299 7.67999C13.5146 7.66396 13.4037 7.62467 13.304 7.5645C13.2043 7.50434 13.1179 7.42456 13.0499 7.32999C12.3821 6.66513 11.5849 6.14454 10.7076 5.8005C9.83027 5.45646 8.89165 5.29632 7.94992 5.32999H7.21991C4.21991 5.55999 0.369916 6.15999 0.419916 8.17999C0.419916 8.89999 0.719916 9.17999 1.20992 9.17999C2.08992 9.17999 3.61992 8.37999 5.41992 8.11999C5.72763 8.07256 6.03857 8.04916 6.34992 8.04999C8.74992 8.04999 10.7299 9.40999 10.8899 10.55C11.0499 11.69 10.6299 14.72 7.73992 14.72H7.21991H7.12991C6.88991 14.72 6.20992 14.82 6.24992 15.83C6.24992 16.69 6.44991 17.06 7.38991 17.06C7.99477 17.0341 8.59663 16.9605 9.18992 16.84C11.7699 16.38 15.3499 14.5 15.7599 12.43C16.0061 11.2494 16.0061 10.0306 15.7599 8.84999C15.7599 7.78999 16.3599 5.99999 17.8299 5.99999C18.689 6.06901 19.486 6.47435 20.0478 7.12789C20.6096 7.78143 20.8907 8.63032 20.8299 9.48999C20.6499 11.39 20.1499 13.17 21.2499 13.17C22.3999 13.17 22.7599 12.26 22.7199 9.63999C22.6799 7.01999 20.9999 1.49999 18.1899 1.48999L18.1699 1.51999Z" fill="#F2DBA2"/>
<path d="M42.2998 33.91C41.5598 33.14 42.1098 32.31 43.8298 32.2C45.5498 32.09 49.0998 32.2 48.8298 33.05C48.5598 33.9 46.8298 34.18 46.1398 35.1C45.4498 36.02 45.9498 37.55 46.8098 37.49C47.6698 37.43 48.3398 35.9 48.4098 35.16C48.4798 34.42 49.2598 34.86 49.4098 35.35C49.5598 35.84 50.0198 38.16 51.1198 37.06C51.5843 36.6983 51.9205 36.1971 52.079 35.63C52.2374 35.063 52.2096 34.4601 51.9998 33.91C51.5871 32.9582 51.0268 32.0774 50.3398 31.3L51.7498 30.38C51.7498 30.38 55.0498 32.47 54.7498 34.67C54.4498 36.87 52.1598 39.27 50.9998 39C49.8398 38.73 48.9198 37.16 48.9198 37.16C48.9198 37.16 46.7098 39.73 45.4798 39C44.2498 38.27 42.2998 36.63 43.9998 35.47C45.6998 34.31 46.3898 33.57 45.7798 33.57C45.1698 33.57 43.2098 33.32 42.9598 33.38C42.7098 33.44 42.2998 33.91 42.2998 33.91Z" fill="#FFCB05" stroke="#F2DBA2" stroke-miterlimit="10"/>
<path d="M48.3502 42.6401C48.1203 42.3861 47.952 42.0826 47.8584 41.7531C47.7647 41.4236 47.7483 41.077 47.8102 40.7401C47.9402 39.3901 48.0602 38.1001 48.6102 38.5901C49.1602 39.0801 49.0002 42.2101 48.3502 42.6401Z" fill="#FFCB05" stroke="#F2DBA2" stroke-miterlimit="10"/>
<path d="M52.1599 18.62C49.8299 16.41 42.9099 14.62 42.9099 14.62C43.2199 13.02 51.4299 4.62002 51.4299 4.62002L49.8299 3.27002C48.2065 4.28831 46.653 5.41416 45.1799 6.64002C42.2219 9.01961 39.7328 11.9292 37.8399 15.22L41.3799 18.53C41.3799 18.53 41.0699 17 42.1799 17C48.1199 17 49.9599 22 50.3199 24.35C50.6799 26.7 48.7899 29 47.2599 28.73C45.7299 28.46 45.6099 24.44 45.6099 24.44L43.6099 24.68C43.4999 27.2 41.8299 29.34 40.9099 29.16C39.9899 28.98 38.6399 26.22 40.2999 24.26C41.3298 23.0733 42.7471 22.2902 44.2999 22.05V20.52C44.2999 19.52 39.0299 19.35 35.4799 19.72C31.9036 20.2096 28.5979 21.8942 26.0999 24.5C24.0999 26.71 26.2899 28.61 26.7799 29.22C27.2699 29.83 31.1299 32.22 30.5099 36.11C30.0699 38.93 28.3099 37.84 27.3699 37.03C27.5854 36.7163 27.7137 36.3511 27.7418 35.9716C27.7699 35.5922 27.6968 35.212 27.5299 34.87C26.7899 33.87 24.8599 32.11 23.8099 32.21C23.8099 32.21 21.2299 33.21 20.4499 34.92C19.6699 36.63 21.6099 38.55 22.7499 39.14C23.8899 39.73 25.6799 38.95 26.4099 38.36C27.213 38.9123 28.1409 39.256 29.1099 39.36C32.4699 39.92 33.5199 36.42 33.8199 34.58C34.1199 32.74 29.8199 28.88 28.9199 27.47C28.0199 26.06 28.2499 24.1 31.4899 22.69C34.7299 21.28 39.2099 22.2 39.2099 22.2C37.8374 23.3463 36.5753 24.6185 35.4399 26C34.3299 27.56 35.7999 29.46 38.8099 31.12C41.8199 32.78 43.9999 28.67 43.9999 28.67C44.9501 29.6759 46.1018 30.4699 47.3799 31C49.7099 32 53.0199 28.42 54.1799 25.73C55.3399 23.04 54.4899 20.82 52.1599 18.62ZM23.9999 38.32C23.3299 38.32 22.7799 37.32 22.7799 36.11C22.7799 34.9 23.3299 33.91 23.9999 33.91C24.6699 33.91 25.2199 34.91 25.2199 36.11C25.2199 37.31 24.6599 38.32 23.9999 38.32Z" fill="#FFCB05" stroke="#F2DBA2" stroke-miterlimit="10"/>
<path d="M70.5801 40.26C71.3134 38.68 72.0334 37.11 72.7401 35.55C73.8901 33.04 75.0501 30.55 76.1801 28C76.2291 27.8331 76.3376 27.6901 76.485 27.5979C76.6325 27.5058 76.8086 27.4709 76.9801 27.5C79.3115 27.4825 81.5988 28.135 83.5701 29.38C84.6247 30.074 85.37 31.149 85.6501 32.38C85.7383 32.7435 85.7461 33.1219 85.6729 33.4888C85.5998 33.8556 85.4474 34.2021 85.2265 34.5039C85.0056 34.8058 84.7214 35.0558 84.3939 35.2365C84.0663 35.4172 83.7033 35.5242 83.3301 35.55C82.2862 35.6245 81.2384 35.4767 80.2559 35.1164C79.2733 34.7562 78.3784 34.1916 77.6301 33.46C76.8901 34.86 76.1801 36.22 75.4701 37.58C75.1017 38.2286 74.7679 38.8962 74.4701 39.58C74.1801 40.28 73.7801 40.58 73.0001 40.35C72.9401 40.14 73.1101 39.97 73.2001 39.79C74.5501 37.19 75.9301 34.6 77.2601 31.99C77.439 31.59 77.7444 31.2599 78.1292 31.0503C78.514 30.8407 78.957 30.7633 79.3901 30.83C80.0209 30.8432 80.6356 31.0316 81.1654 31.3742C81.6952 31.7168 82.1193 32.2001 82.3901 32.77C82.4501 32.9 82.6401 33.13 82.3901 33.27C82.1401 33.41 82.1001 33.18 81.9801 33.07C81.3306 32.3731 80.488 31.8856 79.5601 31.67C79.3746 31.6401 79.1855 31.6401 79.0001 31.67C78.7301 31.67 78.4101 31.73 78.3001 32.07C78.2673 32.2089 78.2733 32.3542 78.3174 32.49C78.3614 32.6257 78.4419 32.7468 78.5501 32.84C79.3744 33.7369 80.491 34.3111 81.7001 34.46C82.189 34.57 82.6939 34.5903 83.1901 34.52C83.4068 34.4889 83.6146 34.4125 83.7999 34.2958C83.9852 34.1791 84.1438 34.0247 84.2655 33.8427C84.3872 33.6606 84.4692 33.455 84.5061 33.2392C84.5431 33.0234 84.5342 32.8022 84.4801 32.59C84.3907 32.1438 84.2139 31.7197 83.9599 31.3421C83.7059 30.9646 83.3797 30.641 83.0001 30.39C81.3496 29.2138 79.3767 28.5748 77.3501 28.56C76.9001 28.56 76.8601 28.86 76.7401 29.12C75.1701 32.58 73.5801 36.04 72.0501 39.52C71.7701 40.21 71.4101 40.5 70.5801 40.26Z" fill="white"/>
<path d="M82.6498 36.66C82.4485 36.855 82.1968 36.99 81.9231 37.05C81.6493 37.1101 81.3643 37.0928 81.0998 37C79.8506 36.7372 78.6584 36.2529 77.5798 35.57C77.3998 35.45 77.1098 35.38 77.3098 35.04C77.5098 34.7 77.6898 35.04 77.8198 35.04C78.5593 35.4592 79.3319 35.817 80.1298 36.11C80.9517 36.3683 81.7951 36.5524 82.6498 36.66Z" fill="white"/>
<path d="M81.7301 37.7999C81.5862 37.9756 81.3987 38.1105 81.1864 38.1913C80.9741 38.272 80.7444 38.2956 80.5201 38.2599C79.2052 38.0637 77.9511 37.575 76.8501 36.8299C76.6401 36.6999 76.5101 36.5899 76.6701 36.3399C76.8301 36.0899 76.9701 36.2399 77.1401 36.3399C78.5022 37.2489 80.0932 37.7549 81.7301 37.7999Z" fill="white"/>
<path d="M77.6699 40.14C77.2576 40.2172 76.8332 40.1988 76.4293 40.0861C76.0253 39.9734 75.6526 39.7695 75.3399 39.49C75.1499 39.36 75.2199 39.23 75.3399 39.07C75.4599 38.91 75.5599 38.99 75.6799 39.07L77.6699 40.14Z" fill="white"/>
<path d="M81.0001 39.21C80.8533 39.3836 80.6629 39.5149 80.4484 39.5904C80.234 39.666 80.0033 39.6831 79.7801 39.64C78.4695 39.4317 77.2242 38.9254 76.1401 38.16C75.9301 38.03 75.8001 37.91 75.9601 37.67C76.1201 37.43 76.2701 37.57 76.4301 37.67C77.7794 38.6008 79.3627 39.1343 81.0001 39.21Z" fill="white"/>
<path d="M61.7824 36.9656H60.3018V40.62H59.7507V36.9656H58.27V36.4758H61.7824V36.9656ZM64.8968 40.62H64.3736V38.8499C64.3736 38.707 64.3652 38.5734 64.3485 38.4491C64.3318 38.3229 64.3012 38.2246 64.2567 38.1541C64.2103 38.0761 64.1435 38.0186 64.0563 37.9815C63.9691 37.9426 63.8559 37.9231 63.7167 37.9231C63.5739 37.9231 63.4245 37.9583 63.2687 38.0288C63.1128 38.0993 62.9634 38.1893 62.8206 38.2988V40.62H62.2973V36.2893H62.8206V37.8563C62.9838 37.7208 63.1527 37.6151 63.3271 37.539C63.5015 37.4629 63.6806 37.4249 63.8643 37.4249C64.2001 37.4249 64.4562 37.526 64.6324 37.7282C64.8087 37.9305 64.8968 38.2218 64.8968 38.6022V40.62ZM68.5066 39.1198H66.2161C66.2161 39.311 66.2448 39.478 66.3023 39.6208C66.3599 39.7618 66.4387 39.8778 66.5389 39.9687C66.6354 40.0578 66.7495 40.1246 66.8812 40.1691C67.0148 40.2136 67.1614 40.2359 67.321 40.2359C67.5325 40.2359 67.745 40.1942 67.9583 40.1107C68.1736 40.0253 68.3267 39.9418 68.4176 39.8602H68.4454V40.4307C68.2691 40.505 68.0892 40.5671 67.9055 40.6172C67.7218 40.6673 67.5288 40.6924 67.3266 40.6924C66.8107 40.6924 66.4081 40.5532 66.1187 40.2749C65.8292 39.9947 65.6845 39.5976 65.6845 39.0837C65.6845 38.5753 65.8227 38.1717 66.0992 37.873C66.3775 37.5742 66.743 37.4249 67.1958 37.4249C67.6151 37.4249 67.9379 37.5473 68.1643 37.7923C68.3925 38.0372 68.5066 38.3851 68.5066 38.836V39.1198ZM67.9973 38.7191C67.9955 38.4445 67.9259 38.232 67.7886 38.0817C67.6531 37.9314 67.4462 37.8563 67.1679 37.8563C66.8877 37.8563 66.6642 37.9388 66.4972 38.104C66.332 38.2691 66.2383 38.4741 66.2161 38.7191H67.9973Z" fill="white"/>
<path d="M36.0275 45.0538C36.0275 45.4972 35.9262 45.8949 35.7237 46.2467C35.5211 46.5964 35.2653 46.865 34.9561 47.0527C34.7237 47.1934 34.4689 47.2915 34.1917 47.3469C33.9145 47.4023 33.5862 47.4301 33.2067 47.4301H31.5276V42.6679H33.2546C33.6427 42.6679 33.9774 42.7009 34.2589 42.767C34.5403 42.831 34.777 42.9227 34.9689 43.0421C35.2972 43.2425 35.5552 43.5133 35.7429 43.8544C35.9326 44.1934 36.0275 44.5932 36.0275 45.0538ZM34.7578 45.0442C34.7578 44.7307 34.7002 44.4632 34.5851 44.2414C34.4721 44.0175 34.2919 43.8427 34.0446 43.7169C33.9188 43.6551 33.7898 43.6135 33.6576 43.5922C33.5276 43.5687 33.3303 43.557 33.0659 43.557H32.7557V46.5377H33.0659C33.358 46.5377 33.5723 46.525 33.7088 46.4994C33.8452 46.4716 33.9785 46.4226 34.1086 46.3522C34.3324 46.2243 34.4966 46.0537 34.6011 45.8405C34.7056 45.6252 34.7578 45.3597 34.7578 45.0442ZM38.052 47.4301H36.9006V43.8384H38.052V47.4301ZM38.084 43.3267H36.8687V42.4536H38.084V43.3267ZM42.6319 47.0175C42.6319 47.3544 42.5839 47.6379 42.488 47.8682C42.392 48.0985 42.2577 48.2787 42.085 48.4087C41.9123 48.5409 41.7033 48.6358 41.4581 48.6934C41.2151 48.7531 40.94 48.7829 40.633 48.7829C40.3835 48.7829 40.1373 48.768 39.8942 48.7381C39.6533 48.7083 39.4443 48.672 39.2673 48.6294V47.7307H39.4081C39.5488 47.7861 39.7204 47.8362 39.923 47.881C40.1255 47.9279 40.3068 47.9514 40.4667 47.9514C40.6799 47.9514 40.8526 47.9311 40.9848 47.8906C41.1191 47.8522 41.2215 47.7968 41.2918 47.7243C41.3579 47.6561 41.4059 47.5686 41.4357 47.462C41.4656 47.3554 41.4805 47.2275 41.4805 47.0782V47.0111C41.3419 47.1241 41.1884 47.2136 41.02 47.2797C40.8515 47.3458 40.6639 47.3789 40.4571 47.3789C39.9539 47.3789 39.5658 47.2275 39.2929 46.9247C39.02 46.622 38.8835 46.1614 38.8835 45.5431C38.8835 45.2467 38.9251 44.9909 39.0083 44.7755C39.0914 44.5602 39.2087 44.3725 39.3601 44.2126C39.5008 44.0634 39.6735 43.9472 39.8782 43.864C40.085 43.7809 40.2961 43.7393 40.5115 43.7393C40.7055 43.7393 40.8814 43.7627 41.0392 43.8096C41.1991 43.8544 41.3441 43.9173 41.4741 43.9983L41.5157 43.8384H42.6319V47.0175ZM41.4805 46.2979V44.67C41.4144 44.6423 41.3334 44.6209 41.2375 44.606C41.1415 44.5889 41.0552 44.5804 40.9784 44.5804C40.6756 44.5804 40.4486 44.6678 40.2972 44.8427C40.1458 45.0154 40.0701 45.2574 40.0701 45.5687C40.0701 45.9141 40.1341 46.155 40.262 46.2915C40.392 46.4279 40.5839 46.4962 40.8377 46.4962C40.9528 46.4962 41.0658 46.478 41.1767 46.4418C41.2876 46.4056 41.3888 46.3576 41.4805 46.2979ZM44.8707 47.4301H43.7193V43.8384H44.8707V47.4301ZM44.9026 43.3267H43.6873V42.4536H44.9026V43.3267ZM48.2544 47.3981C48.1307 47.4301 47.9996 47.4546 47.861 47.4716C47.7224 47.4908 47.5529 47.5004 47.3525 47.5004C46.9047 47.5004 46.5711 47.4098 46.3514 47.2286C46.134 47.0473 46.0252 46.7371 46.0252 46.2979V44.6188H45.5519V43.8384H46.0252V42.8118H47.1766V43.8384H48.2544V44.6188H47.1766V45.8917C47.1766 46.0175 47.1777 46.1273 47.1798 46.2211C47.1819 46.3149 47.199 46.3992 47.231 46.4738C47.2608 46.5484 47.313 46.6081 47.3877 46.6529C47.4644 46.6955 47.5753 46.7168 47.7203 46.7168C47.78 46.7168 47.8578 46.7041 47.9538 46.6785C48.0518 46.6529 48.1201 46.6294 48.1584 46.6081H48.2544V47.3981ZM51.12 46.493V45.7446C50.9644 45.7574 50.7959 45.7755 50.6147 45.799C50.4335 45.8203 50.2959 45.8459 50.2021 45.8757C50.087 45.912 49.9985 45.9653 49.9367 46.0356C49.877 46.1038 49.8471 46.1945 49.8471 46.3075C49.8471 46.3821 49.8535 46.4429 49.8663 46.4898C49.8791 46.5367 49.9111 46.5815 49.9623 46.6241C50.0113 46.6667 50.0699 46.6987 50.1382 46.72C50.2064 46.7392 50.313 46.7488 50.458 46.7488C50.5731 46.7488 50.6893 46.7254 50.8066 46.6785C50.926 46.6316 51.0305 46.5697 51.12 46.493ZM51.12 47.0495C51.0582 47.0964 50.9814 47.1529 50.8897 47.219C50.7981 47.2851 50.7117 47.3373 50.6307 47.3757C50.5177 47.4269 50.4004 47.4642 50.2789 47.4876C50.1573 47.5132 50.0241 47.526 49.8791 47.526C49.538 47.526 49.2522 47.4205 49.022 47.2094C48.7917 46.9983 48.6766 46.7286 48.6766 46.4002C48.6766 46.138 48.7352 45.9237 48.8525 45.7574C48.9697 45.5911 49.136 45.4599 49.3514 45.364C49.5646 45.268 49.829 45.1998 50.1446 45.1593C50.4601 45.1188 50.7874 45.0889 51.1264 45.0698V45.0506C51.1264 44.8523 51.0454 44.7158 50.8834 44.6412C50.7213 44.5644 50.4825 44.526 50.1669 44.526C49.9772 44.526 49.7746 44.5602 49.5593 44.6284C49.3439 44.6945 49.1893 44.7457 49.0955 44.7819H48.99V43.9152C49.1115 43.8832 49.3087 43.8459 49.5817 43.8032C49.8567 43.7585 50.1318 43.7361 50.4068 43.7361C51.0614 43.7361 51.5337 43.8374 51.8236 44.0399C52.1157 44.2403 52.2618 44.5559 52.2618 44.9866V47.4301H51.12V47.0495ZM54.4718 47.4301H53.3204V42.4536H54.4718V47.4301ZM61.2904 47.4301H60.1391V47.0559C59.9408 47.2179 59.7553 47.3373 59.5826 47.4141C59.4099 47.4908 59.2105 47.5292 58.9845 47.5292C58.5474 47.5292 58.1977 47.3608 57.9355 47.0239C57.6732 46.687 57.5421 46.2328 57.5421 45.6614C57.5421 45.3565 57.5858 45.0868 57.6732 44.8523C57.7628 44.6156 57.8843 44.413 58.0378 44.2446C58.1828 44.0847 58.3587 43.961 58.5655 43.8736C58.7723 43.7841 58.9792 43.7393 59.186 43.7393C59.4013 43.7393 59.5772 43.7627 59.7137 43.8096C59.8523 43.8544 59.9941 43.912 60.1391 43.9823V42.4536H61.2904V47.4301ZM60.1391 46.4386V44.6764C60.058 44.6423 59.9728 44.6177 59.8832 44.6028C59.7937 44.5879 59.7116 44.5804 59.6369 44.5804C59.3342 44.5804 59.1071 44.6753 58.9557 44.8651C58.8043 45.0527 58.7286 45.3139 58.7286 45.6486C58.7286 46.0004 58.7894 46.2563 58.9109 46.4162C59.0325 46.574 59.2276 46.6529 59.4962 46.6529C59.6007 46.6529 59.7116 46.6337 59.8288 46.5953C59.9461 46.5548 60.0495 46.5026 60.1391 46.4386ZM64.5526 46.493V45.7446C64.397 45.7574 64.2285 45.7755 64.0473 45.799C63.8661 45.8203 63.7286 45.8459 63.6347 45.8757C63.5196 45.912 63.4311 45.9653 63.3693 46.0356C63.3096 46.1038 63.2797 46.1945 63.2797 46.3075C63.2797 46.3821 63.2861 46.4429 63.2989 46.4898C63.3117 46.5367 63.3437 46.5815 63.3949 46.6241C63.4439 46.6667 63.5025 46.6987 63.5708 46.72C63.639 46.7392 63.7456 46.7488 63.8906 46.7488C64.0057 46.7488 64.1219 46.7254 64.2392 46.6785C64.3586 46.6316 64.4631 46.5697 64.5526 46.493ZM64.5526 47.0495C64.4908 47.0964 64.414 47.1529 64.3224 47.219C64.2307 47.2851 64.1443 47.3373 64.0633 47.3757C63.9503 47.4269 63.833 47.4642 63.7115 47.4876C63.59 47.5132 63.4567 47.526 63.3117 47.526C62.9706 47.526 62.6849 47.4205 62.4546 47.2094C62.2243 46.9983 62.1092 46.7286 62.1092 46.4002C62.1092 46.138 62.1678 45.9237 62.2851 45.7574C62.4024 45.5911 62.5687 45.4599 62.784 45.364C62.9972 45.268 63.2616 45.1998 63.5772 45.1593C63.8927 45.1188 64.22 45.0889 64.559 45.0698V45.0506C64.559 44.8523 64.478 44.7158 64.316 44.6412C64.1539 44.5644 63.9151 44.526 63.5996 44.526C63.4098 44.526 63.2072 44.5602 62.9919 44.6284C62.7765 44.6945 62.622 44.7457 62.5281 44.7819H62.4226V43.9152C62.5441 43.8832 62.7414 43.8459 63.0143 43.8032C63.2893 43.7585 63.5644 43.7361 63.8394 43.7361C64.494 43.7361 64.9663 43.8374 65.2563 44.0399C65.5484 44.2403 65.6944 44.5559 65.6944 44.9866V47.4301H64.5526V47.0495ZM67.9044 47.4301H66.753V43.8384H67.9044V47.4301ZM67.9364 43.3267H66.721V42.4536H67.9364V43.3267ZM70.1432 47.4301H68.9918V42.4536H70.1432V47.4301ZM72.8521 46.1604L73.6708 43.8384H74.8542L72.8585 48.7477H71.6112L72.1804 47.4045L70.7828 43.8384H71.9917L72.8521 46.1604ZM81.2731 45.8469H78.6377C78.6548 46.1284 78.7614 46.3437 78.9575 46.493C79.1558 46.6422 79.4469 46.7168 79.8306 46.7168C80.0737 46.7168 80.3093 46.6731 80.5375 46.5857C80.7656 46.4983 80.9458 46.4045 81.078 46.3043H81.2059V47.2286C80.9458 47.333 80.7006 47.4087 80.4703 47.4556C80.24 47.5025 79.9852 47.526 79.7059 47.526C78.9852 47.526 78.433 47.364 78.0492 47.0399C77.6654 46.7158 77.4735 46.2542 77.4735 45.655C77.4735 45.0623 77.6548 44.5932 78.0172 44.2478C78.3818 43.9003 78.8808 43.7265 79.514 43.7265C80.0982 43.7265 80.5375 43.8747 80.8317 44.171C81.1259 44.4653 81.2731 44.8896 81.2731 45.4439V45.8469ZM80.1281 45.1721C80.1217 44.9312 80.062 44.7499 79.949 44.6284C79.836 44.5069 79.6601 44.4461 79.4213 44.4461C79.1995 44.4461 79.0172 44.5037 78.8744 44.6188C78.7315 44.7339 78.6516 44.9184 78.6345 45.1721H80.1281ZM88.3188 44.171C88.3188 44.3843 88.2815 44.5932 88.2068 44.7979C88.1322 45.0005 88.0256 45.171 87.887 45.3096C87.6973 45.4972 87.4851 45.639 87.2506 45.735C87.0182 45.8309 86.7282 45.8789 86.3806 45.8789H85.6163V47.4301H84.3881V42.6679H86.4094C86.7122 42.6679 86.967 42.6945 87.1738 42.7478C87.3828 42.799 87.5672 42.8768 87.7271 42.9813C87.919 43.1071 88.0651 43.2681 88.1653 43.4642C88.2676 43.6604 88.3188 43.896 88.3188 44.171ZM87.0491 44.1998C87.0491 44.0655 87.0128 43.9504 86.9403 43.8544C86.8678 43.7563 86.7836 43.6881 86.6877 43.6497C86.5597 43.5986 86.435 43.5708 86.3135 43.5666C86.1919 43.5602 86.0299 43.557 85.8273 43.557H85.6163V44.9834H85.9681C86.177 44.9834 86.3487 44.9706 86.483 44.945C86.6194 44.9194 86.7335 44.8683 86.8252 44.7915C86.9041 44.7233 86.9606 44.6423 86.9947 44.5484C87.031 44.4525 87.0491 44.3363 87.0491 44.1998ZM91.3027 46.493V45.7446C91.1471 45.7574 90.9786 45.7755 90.7974 45.799C90.6162 45.8203 90.4787 45.8459 90.3848 45.8757C90.2697 45.912 90.1812 45.9653 90.1194 46.0356C90.0597 46.1038 90.0298 46.1945 90.0298 46.3075C90.0298 46.3821 90.0362 46.4429 90.049 46.4898C90.0618 46.5367 90.0938 46.5815 90.145 46.6241C90.194 46.6667 90.2526 46.6987 90.3209 46.72C90.3891 46.7392 90.4957 46.7488 90.6407 46.7488C90.7558 46.7488 90.872 46.7254 90.9893 46.6785C91.1087 46.6316 91.2132 46.5697 91.3027 46.493ZM91.3027 47.0495C91.2409 47.0964 91.1641 47.1529 91.0725 47.219C90.9808 47.2851 90.8944 47.3373 90.8134 47.3757C90.7004 47.4269 90.5831 47.4642 90.4616 47.4876C90.3401 47.5132 90.2068 47.526 90.0618 47.526C89.7207 47.526 89.435 47.4205 89.2047 47.2094C88.9744 46.9983 88.8593 46.7286 88.8593 46.4002C88.8593 46.138 88.9179 45.9237 89.0352 45.7574C89.1524 45.5911 89.3188 45.4599 89.5341 45.364C89.7473 45.268 90.0117 45.1998 90.3273 45.1593C90.6428 45.1188 90.9701 45.0889 91.3091 45.0698V45.0506C91.3091 44.8523 91.2281 44.7158 91.0661 44.6412C90.904 44.5644 90.6652 44.526 90.3497 44.526C90.1599 44.526 89.9573 44.5602 89.742 44.6284C89.5266 44.6945 89.3721 44.7457 89.2782 44.7819H89.1727V43.9152C89.2942 43.8832 89.4915 43.8459 89.7644 43.8032C90.0394 43.7585 90.3145 43.7361 90.5895 43.7361C91.2441 43.7361 91.7164 43.8374 92.0063 44.0399C92.2985 44.2403 92.4445 44.5559 92.4445 44.9866V47.4301H91.3027V47.0495ZM97.2515 45.5847C97.2515 45.881 97.2056 46.1508 97.1139 46.3938C97.0244 46.6369 96.9061 46.8373 96.7589 46.9951C96.6054 47.1614 96.4317 47.2872 96.2376 47.3725C96.0436 47.4578 95.8357 47.5004 95.614 47.5004C95.4093 47.5004 95.2355 47.478 95.0927 47.4333C94.9498 47.3906 94.8037 47.3298 94.6545 47.251V48.7477H93.5031V43.8384H94.6545V44.2126C94.8315 44.0719 95.0116 43.9578 95.195 43.8704C95.3805 43.783 95.5937 43.7393 95.8346 43.7393C96.2824 43.7393 96.6299 43.9035 96.8773 44.2318C97.1267 44.5602 97.2515 45.0111 97.2515 45.5847ZM96.0649 45.6071C96.0649 45.2574 96.0052 45.0037 95.8858 44.8459C95.7664 44.6881 95.5777 44.6092 95.3197 44.6092C95.211 44.6092 95.0991 44.6263 94.9839 44.6604C94.8688 44.6924 94.759 44.7393 94.6545 44.8011V46.6081C94.7313 46.638 94.8133 46.6571 94.9008 46.6657C94.9882 46.6742 95.0745 46.6785 95.1598 46.6785C95.4647 46.6785 95.6918 46.59 95.841 46.413C95.9903 46.2339 96.0649 45.9653 96.0649 45.6071ZM101.62 45.8469H98.9849C99.002 46.1284 99.1086 46.3437 99.3047 46.493C99.503 46.6422 99.7941 46.7168 100.178 46.7168C100.421 46.7168 100.657 46.6731 100.885 46.5857C101.113 46.4983 101.293 46.4045 101.425 46.3043H101.553V47.2286C101.293 47.333 101.048 47.4087 100.818 47.4556C100.587 47.5025 100.332 47.526 100.053 47.526C99.3325 47.526 98.7802 47.364 98.3964 47.0399C98.0126 46.7158 97.8208 46.2542 97.8208 45.655C97.8208 45.0623 98.002 44.5932 98.3645 44.2478C98.7291 43.9003 99.228 43.7265 99.8612 43.7265C100.445 43.7265 100.885 43.8747 101.179 44.171C101.473 44.4653 101.62 44.8896 101.62 45.4439V45.8469ZM100.475 45.1721C100.469 44.9312 100.409 44.7499 100.296 44.6284C100.183 44.5069 100.007 44.4461 99.7685 44.4461C99.5467 44.4461 99.3644 44.5037 99.2216 44.6188C99.0787 44.7339 98.9988 44.9184 98.9817 45.1721H100.475ZM105.036 44.9354H104.934C104.885 44.9184 104.806 44.9056 104.697 44.897C104.588 44.8885 104.498 44.8843 104.425 44.8843C104.261 44.8843 104.116 44.8949 103.99 44.9162C103.864 44.9376 103.729 44.9738 103.584 45.025V47.4301H102.433V43.8384H103.584V44.3661C103.838 44.1487 104.058 44.0047 104.246 43.9344C104.434 43.8619 104.606 43.8256 104.764 43.8256C104.805 43.8256 104.85 43.8267 104.902 43.8288C104.953 43.831 104.998 43.8342 105.036 43.8384V44.9354Z" fill="white"/>
</svg>
